{"title":"Smurfs 2017 720p BluRay x264 Eng.Hindi Mafiaking M2Tv","magnet":"magnet:?xt=urn:btih:e2807c172017ced48aebfa9ea18979bec69922a5&dn=Smurfs+2017+720p+BluRay+x264+Eng.Hindi+Mafiaking+M2Tv&tr=udp%3A%2F%2Ftracker.leechers-paradise.org%3A6969&tr=udp%3A%2F%2Fzer0day.ch%3A1337&tr=udp%3A%2F%2Fopen.demonii.com%3A1337&tr=udp%3A%2F%2Ftracker.coppersurfer.tk%3A6969&tr=udp%3A%2F%2Fexodus.desync.com%3A6969","uploader":"mafiaaking","categoryP":"video","categoryS":"movies","size":"957115596","seeders":"2","leechers":"25","description":"Smurfs: The Lost Village (2017) 720p BluRay x264 [English DD 5.1 + Hindi DD 5.1] - Mafiaking -  M2Tv\r\n\r\n\r\nIMDB=http://www.imdb.com/title/tt2398241/\r\n\r\nRatings: 5.9/10\r\n\r\nGenere:      Animation, Adventure, Comedy\r\n\r\nGeneral\r\nComplete name               : Smurfs: The Lost Village (2017) 720p BluRay x264 [English DD 5.1 + Hindi DD 5.1] - Mafiaking -  M2Tv.mkv\r\nFormat                      : Matroska\r\nFile size                   : 899 MiB\r\nDuration                    : 1 h 29 min\r\nOverall bit rate            : 1 400 kb/s\r\nMovie name                  : Smurfs: The Lost Village (2017) 720p BluRay x264 [English DD 5.1 + Hindi DD 5.1] - Mafiaking -  M2Tv\r\n\r\nVideo\r\nID                          : 1\r\nFormat                      : AVC\r\nCodec ID                    : V_MPEG4/ISO/AVC\r\nDuration                    : 1 h 29 min\r\nBit rate                    : 950 kb/s\r\nWidth                       : 1 280 pixels\r\nHeight                      : 688 pixels\r\nFrame rate                  : 23.976 (24000/1001) FPS\r\nStream size                 : 610 MiB (68%)\r\nTitle                       : Mafiaking\r\nLanguage                    : English\r\n\r\nAudio #1\r\nID                          : 2\r\nFormat                      : AC-3\r\nDuration                    : 1 h 29 min\r\nBit rate                    : 224 kb/s\r\nChannel(s)                  : 6 channels\r\nSampling rate               : 48.0 kHz\r\nStream size                 : 144 MiB (16%)\r\nTitle                       : Mafiaking\r\nLanguage                    : Hindi\r\n\r\nAudio #2\r\nID                          : 3\r\nFormat                      : AC-3\r\nDuration                    : 1 h 29 min\r\nBit rate                    : 224 kb/s\r\nChannel(s)                  : 6 channels\r\nSampling rate               : 48.0 kHz\r\nStream size                 : 144 MiB (16%)\r\nTitle                       : Mafiaking\r\nLanguage                    : English\r\n\r\nScreens:-\r\n <a href=\"\nhttps://www.lookimg.com/image/AjwAo\" rel=\"nofollow\" target=\"_NEW\">\nhttps://www.lookimg.com/image/AjwAo</a> <a href=\"\nhttps://www.lookimg.com/image/AjDeH\" rel=\"nofollow\" target=\"_NEW\">\nhttps://www.lookimg.com/image/AjDeH</a> <a href=\"\nhttps://www.lookimg.com/image/AjXpV\" rel=\"nofollow\" target=\"_NEW\">\nhttps://www.lookimg.com/image/AjXpV</a> <a href=\"\nhttps://www.lookimg.com/image/AjlvK\" rel=\"nofollow\" target=\"_NEW\">\nhttps://www.lookimg.com/image/AjlvK</a> <a href=\"\nhttps://www.lookimg.com/image/Ajtds\" rel=\"nofollow\" target=\"_NEW\">\nhttps://www.lookimg.com/image/Ajtds</a> <a href=\"\nhttps://www.lookimg.com/image/AjCCc\" rel=\"nofollow\" target=\"_NEW\">\nhttps://www.lookimg.com/image/AjCCc</a> <a href=\"\nhttps://www.lookimg.com/image/AjWrz\" rel=\"nofollow\" target=\"_NEW\">\nhttps://www.lookimg.com/image/AjWrz</a> <a href=\"\nhttps://www.lookimg.com/image/AjEo3\" rel=\"nofollow\" target=\"_NEW\">\nhttps://www.lookimg.com/image/AjEo3</a> <a href=\"\nhttps://www.lookimg.com/image/AjNwM\" rel=\"nofollow\" target=\"_NEW\">\nhttps://www.lookimg.com/image/AjNwM</a> <a href=\"\nhttps://www.lookimg.com/image/Ajn5v\" rel=\"nofollow\" target=\"_NEW\">\nhttps://www.lookimg.com/image/Ajn5v</a> <a href=\"\nhttps://www.lookimg.com/image/Aj3AE\" rel=\"nofollow\" target=\"_NEW\">\nhttps://www.lookimg.com/image/Aj3AE</a> <a href=\"\nhttps://www.lookimg.com/image/Aj4id\" rel=\"nofollow\" target=\"_NEW\">\nhttps://www.lookimg.com/image/Aj4id</a> <a href=\"\nhttps://www.lookimg.com/image/AjR39\" rel=\"nofollow\" target=\"_NEW\">\nhttps://www.lookimg.com/image/AjR39</a> <a href=\"\nhttps://www.lookimg.com/image/Ajsvt\" rel=\"nofollow\" target=\"_NEW\">\nhttps://www.lookimg.com/image/Ajsvt</a>","last_updated":"2017-08-25T12:02:44.591Z","parsed":{"xt":"urn:btih:e2807c172017ced48aebfa9ea18979bec69922a5","dn":"Smurfs 2017 720p BluRay x264 Eng.Hindi Mafiaking M2Tv","tr":["udp://exodus.desync.com:6969","udp://open.demonii.com:1337","udp://tracker.coppersurfer.tk:6969","udp://tracker.leechers-paradise.org:6969","udp://zer0day.ch:1337"],"infoHash":"e2807c172017ced48aebfa9ea18979bec69922a5","infoHashBuffer":{"type":"Buffer","data":[226,128,124,23,32,23,206,212,138,235,250,158,161,137,121,190,198,153,34,165]},"name":"Smurfs 2017 720p BluRay x264 Eng.Hindi Mafiaking M2Tv","announce":["udp://exodus.desync.com:6969","udp://open.demonii.com:1337","udp://tracker.coppersurfer.tk:6969","udp://tracker.leechers-paradise.org:6969","udp://zer0day.ch:1337"],"urlList":[]}}